<?xml version="1.0" standalone="no"?><!DOCTYPE svg PUBLIC "-//W3C//DTD SVG 1.1//EN" "http://www.w3.org/Graphics/SVG/1.1/DTD/svg11.dtd"><svg t="1553757778435" class="icon" style="" viewBox="0 0 1024 1024" version="1.1" xmlns="http://www.w3.org/2000/svg" p-id="1944" xmlns:xlink="http://www.w3.org/1999/xlink" width="200" height="200"><defs><style type="text/css"></style></defs><path d="M512 1024C229.218462 1024 0 794.781538 0 512S229.218462 0 512 0s512 229.218462 512 512-229.218462 512-512 512z m261.080615-825.422769h-209.526153c-15.714462 0-26.190769 10.476308-26.19077 26.151384 0 15.753846 10.476308 26.190769 26.19077 26.19077h157.144615l-149.267692 149.267692c-39.305846-28.750769-86.449231-44.504615-138.83077-44.504615A234.732308 234.732308 0 0 0 196.923077 591.399385 234.732308 234.732308 0 0 0 432.600615 827.076923a234.732308 234.732308 0 0 0 235.716923-235.677538c0-52.381538-15.753846-99.524923-44.504615-138.83077l149.267692-151.867077v157.144616c0 15.675077 10.476308 26.151385 26.19077 26.151384 15.675077 0 26.151385-10.476308 26.151384-26.190769v-209.526154c0-28.750769-23.552-49.703385-52.381538-49.703384z m-340.48 573.518769a182.193231 182.193231 0 0 1-183.296-183.335385 182.193231 182.193231 0 0 1 183.296-183.296 182.193231 182.193231 0 0 1 183.335385 183.296 182.193231 182.193231 0 0 1-183.335385 183.335385z" fill="#00A0E8" p-id="1945"></path></svg>