<?xml version="1.0" standalone="no"?><!DOCTYPE svg PUBLIC "-//W3C//DTD SVG 1.1//EN" "http://www.w3.org/Graphics/SVG/1.1/DTD/svg11.dtd"><svg t="1553757897340" class="icon" style="" viewBox="0 0 1024 1024" version="1.1" xmlns="http://www.w3.org/2000/svg" p-id="3569" xmlns:xlink="http://www.w3.org/1999/xlink" width="200" height="200"><defs><style type="text/css"></style></defs><path d="M512 0a512 512 0 0 0-512 512 512 512 0 0 0 512 512A512 512 0 0 0 512 0z m-3.392 867.52a55.616 55.616 0 1 1 0-111.232 55.616 55.616 0 0 1 0 111.232z m200.896-449.28c-10.112 21.248-31.488 47.552-64.384 79.04-32.896 31.616-54.592 54.016-65.408 67.328a138.432 138.432 0 0 0-24.384 47.808c-5.504 18.496-8 43.392-7.296 74.56H462.144c0-36.352 2.88-65.472 8.768-87.296 5.952-21.76 14.72-40.768 26.432-57.088 11.712-16.192 32.768-40.192 63.36-71.68 30.656-31.488 50.24-54.528 59.008-68.8 8.832-14.336 13.248-35.584 13.248-63.936a107.52 107.52 0 0 0-30.208-75.072c-20.096-21.76-49.408-32.704-87.808-32.704-86.528 0-129.792 51.392-129.792 154.112h-85.76c1.28-46.784 6.72-82.432 16.512-106.816 9.856-24.384 25.408-46.208 46.848-65.28 21.504-19.2 45.44-33.28 71.68-42.432 26.304-9.088 54.08-13.696 83.392-13.696 59.2 0 108.416 17.408 147.84 52.224 39.36 34.816 58.944 81.216 58.944 139.008-0.064 26.112-5.12 49.664-15.168 70.784z" p-id="3570" fill="#707070"></path></svg>