<?xml version="1.0" standalone="no"?><!DOCTYPE svg PUBLIC "-//W3C//DTD SVG 1.1//EN" "http://www.w3.org/Graphics/SVG/1.1/DTD/svg11.dtd"><svg t="1553757822424" class="icon" style="" viewBox="0 0 1024 1024" version="1.1" xmlns="http://www.w3.org/2000/svg" p-id="2823" xmlns:xlink="http://www.w3.org/1999/xlink" width="200" height="200"><defs><style type="text/css"></style></defs><path d="M511.5 3.5c275.4 0 498.8 227.6 498.8 508.2S787 1019.9 511.5 1019.9 12.7 792.4 12.7 511.7 236 3.5 511.5 3.5z m88.7 217.7c36.2-4.9 79.1 10.7 109.2 29.1 29.1 17.5 50.1 40.8 66.3 73.8 11.4 22.8 18.6 46.6 21.5 72.9 5.2 52-24.8 111.2-48.6 138-15.7 17.5-31.5 29.1-52.9 40.3-20.5 10.7-44.8 18.9-71.5 21.4-42 4.4-89.6-14.1-123-38.9-13.8-9.7-24.3-20.4-34.8-35-21-29.6-34.8-62.7-38.6-102-5.2-48.6 19.6-103.5 47.7-138 12.4-14.6 32.4-29.1 52.9-40.3 21.3-11.1 44.1-17.9 71.8-21.3zM214 565.2c0 6.8-0.5 18 0.5 24.3 0.5 8.3 4.8 11.2 8.1 15.1l46.2 47.6c4.3 4.4 7.6 8.3 11.9 12.1 4.3 4.4 10 8.8 11.9 12.2-1.9 3.4-15.7 17-20 20.9l-51.5 52.5c-1.9 1.9-2.9 2.9-4.3 5.3-2.4 2.9-1.9 4.9-3.3 7.3v27.2c6.7 11.2-1 2.9 12.9 17 6.7 6.8 9.5 8.3 22.4 8.3 24.8 0 20 0.5 40-19.9 9.5-9.2 17.2-17.5 30-30.1 5.2-5.3 9.5-9.7 14.8-15.1 4.8-5.3 10.5-10.7 14.8-15.5l40.5 41.3c4.3 4.4 31.5 33 35.8 35.9 2.9 2.4 4.8 2.4 7.1 3.9H459l5.2-2.4c1.9-1 3.3-2.4 4.3-2.9 12.4-11.2 15.7-15.1 15.7-30.6 0-26.2 0-20.4-20-41.3-15.3-16-39.6-42.3-55.3-57.3l-1.9-1.9c-1.9-1.5-1 0-1.9-2.4 2.4-3.4 8.6-9.2 11.9-12.6 4.3-4.4 8.1-8.3 12.4-13.1l25.3-24.8c8.6 5.3 16.2 11.7 26.2 17.5 31 17.5 63.9 28.7 101.1 32.1 67.7 5.8 122.5-5.8 177.8-42.8 21.5-14.6 51.5-44.7 67.2-66.6 48.2-67.1 44.8-125.3 47.7-132.6v-44.7c-1-3.4-1.9-22.4-2.9-28.2-8.6-56.8-35.3-102.5-72.5-140.9-38.1-39.3-82-65.6-138.3-74.8-4.8-1-23.8-2.4-26.7-3.4h-46.2c-4.3 1.9-15.3 1.9-20.5 2.4-38.6 5.8-79.6 22.3-109.2 45.7-6.7 4.9-19.1 14.6-24.3 20.9-3.3 3.9-7.1 7.3-11 11.2-20 20.4-33.4 37.9-46.7 64.1-32.9 63.6-36.7 154-9.5 224.9 11.4 30.6 30.5 54.9 31.5 57.3l-49.6 50.5c-3.3-1.9-11.5-12.1-15.3-15.1-6.2-5.3-38.1-38.9-44.8-46.2-19.5-19.9-14.8-18.9-41.5-18.9-13.4 0-14.8 2.9-21.5 9.2-5 5.2-8.8 7.6-11.7 17.4z" fill="#FFCDD1" p-id="2824"></path></svg>